<?xml version="1.0" standalone="no"?>
<!DOCTYPE svg PUBLIC "-//W3C//DTD SVG 20010904//EN"
 "http://www.w3.org/TR/2001/REC-SVG-20010904/DTD/svg10.dtd">
<svg version="1.0" xmlns="http://www.w3.org/2000/svg"
 width="512.000000pt" height="512.000000pt" viewBox="0 0 512.000000 512.000000"
 preserveAspectRatio="xMidYMid meet">
<metadata>
Created by potrace 1.11, written by Peter Selinger 2001-2013
</metadata>
<g transform="translate(0.000000,512.000000) scale(0.100000,-0.100000)"
fill="#000000" stroke="none">
<path d="M2439 4686 c-2 -2 -31 -7 -64 -11 -33 -3 -104 -17 -157 -30 -550
-136 -972 -625 -1025 -1189 -4 -39 -7 -178 -7 -308 -1 -131 -4 -238 -8 -238
-4 0 -19 -5 -35 -11 -15 -6 -30 -11 -33 -11 -3 0 -41 -19 -85 -42 -259 -135
-451 -368 -583 -711 -34 -89 -69 -202 -77 -254 -3 -19 -7 -37 -9 -40 -4 -6 -9
-35 -22 -118 -3 -21 -7 -49 -10 -63 -2 -14 -7 -76 -10 -137 -7 -141 7 -193 72
-257 103 -103 268 -99 363 10 42 47 51 72 62 164 14 118 23 155 57 230 43 96
106 164 196 212 48 26 152 56 160 47 2 -2 7 -31 10 -64 4 -33 9 -71 11 -85 2
-14 7 -47 10 -75 7 -62 24 -167 39 -247 3 -13 10 -50 16 -83 15 -81 57 -241
75 -287 8 -21 12 -38 8 -38 -4 0 -2 -5 5 -12 7 -7 12 -18 12 -26 0 -25 82
-183 120 -231 60 -76 99 -90 260 -92 209 -2 309 -27 436 -110 93 -61 157 -93
214 -109 71 -20 87 -22 227 -25 136 -3 225 9 312 42 40 15 145 85 180 120 22
23 103 60 159 73 76 18 232 8 303 -19 30 -12 98 -52 151 -89 144 -103 231
-130 406 -128 90 2 105 5 164 34 127 62 211 186 212 311 1 68 -12 108 -84 266
-15 33 -40 89 -54 123 -15 35 -39 91 -55 125 -47 105 -147 346 -196 472 -25
66 -52 134 -60 151 -7 17 -10 35 -7 40 4 5 39 20 77 33 236 78 415 260 515
522 20 55 55 173 64 219 3 14 9 48 15 77 6 29 13 81 17 115 3 35 8 74 10 88 3
14 7 120 10 237 5 185 4 219 -11 264 -35 106 -148 178 -260 166 -132 -13 -217
-107 -229 -252 -17 -212 -106 -364 -258 -440 -120 -60 -113 -72 -114 188 -1
196 -9 350 -19 367 -2 3 -6 25 -10 50 -21 140 -134 391 -238 530 -139 184
-295 314 -496 415 -130 65 -244 101 -421 132 -35 6 -306 14 -311 9z"/>
</g>
</svg>
